/* XPM */
static char * telnet_xpm[] = {
"32 29 130 2",
"  	c None",
". 	c #D6D0C6",
"+ 	c #EEEADE",
"@ 	c #E7E6DD",
"# 	c #E5E1D6",
"$ 	c #DDDCD5",
"% 	c #D4D3CC",
"& 	c #CCCBC2",
"* 	c #CFC9BE",
"= 	c #CAC6BD",
"- 	c #C6C4BC",
"; 	c #C3BEB4",
"> 	c #BDBBB3",
", 	c #BAB5AC",
"' 	c #B3ADA5",
") 	c #A29F9B",
"! 	c #918D84",
"~ 	c #7C7975",
"{ 	c #E9E5DA",
"] 	c #E2DFD5",
"^ 	c #DCD8CE",
"/ 	c #D7D8D7",
"( 	c #B3B1AA",
"_ 	c #ABA69D",
": 	c #A4A29C",
"< 	c #A49C92",
"[ 	c #89837E",
"} 	c #ABAAAB",
"| 	c #7F817F",
"1 	c #848283",
"2 	c #7C7C7B",
"3 	c #777A76",
"4 	c #737473",
"5 	c #6B6C6A",
"6 	c #666966",
"7 	c #636563",
"8 	c #5E615E",
"9 	c #5B5D5B",
"0 	c #565956",
"a 	c #4B4C4B",
"b 	c #4C5452",
"c 	c #494649",
"d 	c #454345",
"e 	c #6E716E",
"f 	c #9E9791",
"g 	c #9C9B9C",
"h 	c #C3C0C3",
"i 	c #989498",
"j 	c #898689",
"k 	c #605E60",
"l 	c #474A47",
"m 	c #413E41",
"n 	c #3D3A3D",
"o 	c #95928B",
"p 	c #99958E",
"q 	c #918E91",
"r 	c #B8B8B8",
"s 	c #878A86",
"t 	c #514E51",
"u 	c #383738",
"v 	c #908D89",
"w 	c #A5A6A5",
"x 	c #B5B9B5",
"y 	c #8C8C8B",
"z 	c #535453",
"A 	c #333433",
"B 	c #8D8A84",
"C 	c #2F312F",
"D 	c #2B2C2B",
"E 	c #8A8681",
"F 	c #DAD6CE",
"G 	c #30332F",
"H 	c #959391",
"I 	c #272827",
"J 	c #85827D",
"K 	c #585458",
"L 	c #4E514E",
"M 	c #282628",
"N 	c #D3CEC9",
"O 	c #74726D",
"P 	c #54534D",
"Q 	c #373937",
"R 	c #242324",
"S 	c #D1CEC6",
"T 	c #211F21",
"U 	c #8A7E7B",
"V 	c #65746D",
"W 	c #3F403E",
"X 	c #1D1C1D",
"Y 	c #807A74",
"Z 	c #181618",
"` 	c #C3C1B5",
" .	c #5C5B55",
"..	c #151414",
"+.	c #726D6C",
"@.	c #797472",
"#.	c #0B0C0C",
"$.	c #13130E",
"%.	c #696663",
"&.	c #332F33",
"*.	c #B4B0A7",
"=.	c #9E9B94",
"-.	c #827E7B",
";.	c #6E6B65",
">.	c #625E5D",
",.	c #ADABA4",
"'.	c #A7968F",
").	c #AD887E",
"!.	c #9E857C",
"~.	c #A37C74",
"{.	c #988C83",
"].	c #9C7B70",
"^.	c #928781",
"/.	c #8A9069",
"(.	c #92AB3F",
"_.	c #8C9C48",
":.	c #63625D",
"<.	c #8F8D71",
"[.	c #939187",
"}.	c #8E897F",
"|.	c #78746E",
"1.	c #7B796D",
"2.	c #73725E",
"3.	c #435150",
"4.	c #504F49",
"5.	c #6B685E",
"6.	c #69645C",
"7.	c #595652",
"8.	c #4C4945",
"9.	c #9D988F",
"  . + + + + + @ @ # # $ $ $ $ % % . . & * * = - ; > > , ' ) ! ~ ",
"% @ { ] # ] $ $ ^ / % % % & & & = - ; ; ; > > , ( ( ' _ : : < [ ",
"+ # } | 1 1 2 2 3 3 3 4 5 5 5 6 7 8 8 9 9 0 0 a b a c c d e f ! ",
"+ # 1 g h g i j 1 j j 2 4 e 5 6 7 k 8 0 a l c c c c c m n n o p ",
"+ # q r / } g s 2 3 3 3 4 5 6 6 7 9 k k 9 0 a 0 t c m m n u v o ",
"+ ] 1 w x y 1 q 1 5 2 y y | 4 1 2 6 4 2 s 5 0 4 9 z d n u A ! v ",
"+ / 1 w w 4 2 | 4 4 e 6 5 8 9 9 z 0 z z b c c c m m n A A A B y ",
"@ $ | i q | 2 3 1 1 | 3 | 8 7 8 b 7 0 z 0 a d m m m u A C D E ! ",
"# F 1 q y 2 4 e 4 6 6 6 8 7 8 z 0 9 z t a t z a c m A G D D E ! ",
"# F 1 H y y | 3 | 5 e e 5 5 5 0 9 6 9 z t 9 7 9 a d A A D I J B ",
"] % 4 | 4 5 7 8 8 9 0 K z b L a d c c d m n n u A C D D I I J E ",
"$ % 3 2 5 2 5 4 6 7 5 k 8 7 0 9 9 a t a t a c u d A D I I M 2 E ",
"] N 2 2 6 4 O 3 7 6 e 9 6 6 9 k k t z b P a a Q d A I M R R 2 J ",
"/ S 5 5 7 8 9 0 8 k z b t b c d d m n n u A C G D I M R R T ~ U ",
"% & 5 5 7 e 7 V 5 e e 9 9 k 9 z z 0 z t l W A C I I R R T T ~ 2 ",
"% = 6 7 7 5 7 7 9 9 k 9 z z 0 t t z L c W n G I I I R T X X Y ~ ",
". - 7 8 9 0 z L b a a c c d m n n u A A C D I I M R T X Z Z 4 ~ ",
". ` 8  .0 z b z a a c c c m m n u A A D C I I M R T T Z Z Z O ~ ",
"& ` 8 0 z z b a a c c c m m n n A A D D I I M R T X Z Z ....+.@.",
"* ; 8 z L L t c l c m m n n u G C C D I M R T X X Z ....#.$.+.4 ",
"* > 0 0 2 1 | 3 4 4 1 4 O 4 6 2 e 9 5 7 9 5 5 k %.%.K k d ..+.@.",
"- > | z 9 9 K K 0 t K t a l d c d Q n n u n n &.&.A M M T m +.@.",
", > *.: =.f p o o o j y B E J [ -.~ ~ 2 @.@.O O 5 ;.%.>.>.+.+.%.",
"  f *.*.,.,.,._ _ '.).'.=.!.~.{.p !.].^.v E ~ -./.(._.Y @.+.:. .",
"    V <.=.=.=.=.p [.{.o B ! ! }.}.J U J J 2 ~ ~ |.1.2.;.>.b 3.  ",
"              a 4.:.1.5.0 ;.1.5.6.+.~ 6.>.:.7.7.                ",
"              4.L 8 8 P 7.:.8 8 :.5.>.7.6.5. . .                ",
"      a O ~ J [ [ [ J -.-.-.Y ~ ~ ~ @.O |.|.O ;.:.7.7.8.        ",
"      8 s [.9.o o o [.B B ! }.[ [ J [ 2 ~ Y ~ |.+.%.7.P         "};
